<svg id="full" xmlns="http://www.w3.org/2000/svg" viewBox="0 0 1024 1024"><defs><style>.cls-1{fill:#4499e4;}.cls-2{fill:#4190d7;}.cls-3{fill:#3d88cb;}.cls-4{fill:#47a3ee;}.cls-5{fill:#459de7;}.cls-6{fill:#38f382;}.cls-7{fill:#44fe8b;}.cls-8{fill:#34e478;}.cls-9{fill:#31d771;}.cls-10{fill:#59fe97;}</style></defs><g id="earth"><path class="cls-1" d="M447.44,1024H319.6c-4.24-3.23-4.42-7.92-4.53-12.64-.25-11,.1-22-.2-33s-2.55-13.5-13.73-13.62c-28.95-.3-57.9-.07-86.85-.12-5,0-10-.06-15-.32-7.64-.4-11.45-4.39-11.85-12-.68-12.66-.07-25.33-.44-38-.32-11.1-2.58-13.36-13.69-13.65-12-.32-24,.27-35.93-.34-10.68-.55-13.42-3.28-14-14-.63-12.32,0-24.66-.38-37-.34-9.94-2.71-12.33-12.6-12.67-11.64-.4-23.29.14-34.93-.28-13.19-.48-15.87-2.94-16.08-16.07-.48-29.32-.11-58.65-.19-88,0-3.66.09-7.33-.1-11-.51-10-2.73-12.35-12.61-12.71-11.31-.4-22.63,0-33.94-.24-4.71-.11-9.39-.3-12.62-4.54v-64c3.2-4.23,7.84-4.45,12.54-4.54,11.58-.23,23.18.18,34.75-.23,9.42-.33,11.56-2.51,11.88-12,.37-10.94,0-21.88.17-32.82.07-4.64-.05-9.31,2.08-13.64a7.12,7.12,0,0,1,2.29-2.75c9.12-4.4,18.87-2.12,28.34-2.59,6.27-.31,12.57.11,18.85-.15,9.93-.4,11.95-2.42,12.23-12.65.29-10.92,0-21.85.15-32.78.06-4.63,0-9.3,2.36-13.56a7.32,7.32,0,0,1,2.69-2.61c6.18-3,12.84-2.29,19.35-2.29,14.76,0,29.53-.48,44.28.53,17.37-1.06,34.75-.55,52.12-.44,4.29,0,8.55.39,12.2,3.06,4.56,4.89,3.94,11.07,4,17,.19,30.22,0,60.43.12,90.64.06,15.47,1.72,17.06,17.18,17.2,9.61.09,19.23-.06,28.84.1,5,.08,10,.23,14.31,3.23,3.87,3.63,3.25,8.51,3.4,13.06.39,11.61-.11,23.23.28,34.83.33,9.86,2.74,12.31,12.53,12.68,11.25.42,22.52-.07,33.78.26,14.46.43,17.08,2.79,17.31,16.85.28,17.24.65,34.5-.42,51.73.9,21.22,1,42.44,0,63.66,1.33,35.27.27,70.57.62,105.85.16,16.38,1.45,17.72,17.6,17.86,10,.09,19.94-.12,29.91.15,4.68.12,9.36.32,13.07,3.83,2.76,3.67,3.1,8,3.19,12.31q.39,19.9,0,39.81C451.86,1016.08,451.67,1020.78,447.44,1024Z"/><path class="cls-2" d="M447.44,1024l-.13-64.19,1.09-1.53c3.64-3,8.08-2.75,12.36-2.85,9.65-.24,19.3,0,28.94-.13,15.34-.15,16.86-1.72,17-17.46.09-10-.19-20,.17-30,.49-13.56,3-16,16.81-16.43,9.31-.3,18.63-.09,27.94-.13,17.91-.1,18.92-1.14,19-19.51,0-5.66,0-11.33,0-17,.06-27.45.06-27.47,27-27.51,26.61,0,53.21,0,79.82,0,20.57,0,21-.45,21-21.5q0-6.49,0-13c0-29.48,0-29.48,29-29.52,6.32,0,12.64.06,19,0,13.69-.21,15.71-2.15,15.93-15.54.19-10.66-.17-21.33.21-32,.47-13.21,3-15.81,15.94-16.3,10.3-.4,20.62-.08,30.93-.19,14.93-.16,16.81-1.88,16.84-16.64.13-51,0-101.94.12-152.91,0-6.54-1-13.46,3.86-19.1a15.91,15.91,0,0,1,9.29-3.07c16.23-.49,32.45-.63,48.68.1,2.66.12,5.29.54,7.38,2.47,3.56,4.07,3.72,9.1,3.83,14.12.23,10,0,20,.14,30,.15,15,1.87,16.79,16.53,17,11,.15,22-.3,32.93.29,10.64.59,13.68,3.43,14.12,13.9.65,15,.44,30,.09,45a19.88,19.88,0,0,1-2.91,10.45c-3.22,3.79-7.75,3.42-12,3.58-11.31.41-22.63,0-33.94.24-12.37.24-14.66,2.37-14.76,14.63-.23,29.66,0,59.33-.1,89-.07,23.52-.79,24.21-24.12,24.35-9,.06-18-.21-26.95.13-10,.38-12.37,2.66-12.71,12.57-.42,12.33.24,24.67-.37,37-.52,10.72-3.26,13.51-13.9,14.07-12.3.66-24.62,0-36.93.39-10,.34-12.37,2.67-12.71,12.55-.4,11.33.07,22.67-.25,34-.4,14.52-2.67,17-17,17.22-28.62.39-57.24.09-85.86.15-3.66,0-7.32-.07-11,.06-11.17.41-13.5,2.61-13.8,13.61-.33,11.66.2,23.33-.29,35-.49,11.9-3.16,14.61-15,15.14-12,.54-24-.08-35.94.34-10,.36-12.34,2.71-12.7,12.61-.4,11.32,0,22.66-.24,34-.11,4.72-.29,9.41-4.53,12.64Z"/><path class="cls-3" d="M1022.4,703.91c-18.28,0-36.57.3-54.84-.17-6.9-.18-9,1.62-8.92,8.76.37,36.62-.09,73.25.37,109.87.11,8.07-2.32,10-10,9.74-15.27-.58-30.59.11-45.87-.31-6.35-.17-8.65,1.46-8.44,8.2.5,15.64-.31,31.32.36,46.94.33,7.8-2.32,9.43-9.53,9.18-15.61-.53-31.25.11-46.87-.3-6.06-.15-8.05,1.49-7.87,7.76.45,15.31-.53,30.67.4,45.93.56,9.35-2.82,10.76-11.13,10.66-35.9-.45-71.81,0-107.71-.36-7.31-.08-9.7,1.59-9.45,9.26.61,18.29.2,36.62.2,54.93H575.29q0-25,0-50c0-14,0-14,13.56-14,13.31,0,26.62-.31,39.92.11,7.66.24,10.81-2.33,10.56-10.3-.45-14.31.23-28.66-.26-43-.28-8.25,2.61-11.08,10.91-11,34.92.34,69.85-.15,104.77.33,9.61.13,12.94-2.89,12.47-12.53-.68-14,.1-28-.27-42-.2-7.45,2.77-10,10-9.82,14,.35,28-.44,41.9.28,9.89.52,12.74-3.33,12.27-12.71-.65-13,.32-26-.32-39-.47-9.38,2.37-13.26,12.27-12.71,13.26.73,26.62-.28,39.9.33,9,.42,12.22-2.53,12.09-11.87-.46-34.64.11-69.3-.37-103.94-.13-9.53,2.72-12.94,12.43-12.57,17.27.64,34.59.13,51.89.1,2.41-3.14,5.76-4.16,9.54-4.28,15.14-.46,30.28-.49,45.41,0,3.4.11,6.49,1.06,8.84,3.72C1024.08,660.82,1024.84,682.37,1022.4,703.91Z"/><path class="cls-4" d="M0,319.77l63.59,0,1.62.82c3.54,3.36,3.1,7.84,3.22,12.08.3,10.91-.05,21.82.19,32.73.25,11.31,2.25,13.37,13.33,13.64s22.45-.05,33.67.18c5,.1,10,.23,14,3.82,2.84,3.3,2.63,7.4,2.67,11.29.2,17.79.66,35.59-.39,53.37,1,16.85.56,33.71.46,50.57,0,4.95.06,10.06-4.53,13.53h0c-3.19,4.21-7.82,4.45-12.51,4.55-11.56.24-23.13-.18-34.68.23-9.32.34-11.63,2.65-12,12-.41,11.57,0,23.16-.23,34.73-.1,4.7-.34,9.33-4.54,12.53h0c-2.69,3.5-6.48,4.33-10.59,4.44q-21.37.54-42.74,0c-4.11-.11-7.9-.94-10.59-4.43Z"/><path class="cls-5" d="M0,575.86H63.92c0,17.91-.27,35.83.12,53.74.17,7.77-2.62,10.57-10.39,10.4-17.88-.39-35.77-.12-53.65-.11Z"/><path class="cls-6" d="M383.85,767.91c-.11-18.31-.48-36.63-.2-54.93.11-6.87-2-9.42-9-9.21-15,.44-29.94-.22-44.89.27-7.63.25-10.55-1.86-10.3-10,.54-18,.11-36,.08-53.95-3.25-2.84-4.25-6.58-4.35-10.72-.33-15-.61-29.92.15-44.86.48-9.52,3.37-12.39,12.85-12.93,15.91-.91,31.85-.45,47.78-.36,45.13.23,90.27-.75,135.39.53,18-1,35.93-.81,53.89-.28,11.39.34,14.24,3.07,14.43,14.51q.89,54,0,108c-.19,11.2-3.22,14-14.62,14.34-17.62.47-35.26.76-52.87-.33-15.6,1-31.23.27-46.84.7-10.39.29-12.78,2.73-13.12,13.21-.38,12,.25,24-.36,36-.57,11.2-3.36,14.06-14.57,14.5-13.95.55-27.91.35-41.87.09C391,772.32,386.67,772.06,383.85,767.91Z"/><path class="cls-7" d="M511.57,575.76l-178.62.1c-13.29,0-13.31,0-13.34,13.26q-.08,25.49-.1,51c-18.31-.08-36.62-.43-54.92-.08-7.07.14-9.08-2.35-9-9.22.28-39.67.17-79.35.19-119,.33-.51.65-1,1-1.54,3.88-3.45,8.7-2.83,13.28-2.94,11.28-.28,22.57,0,33.85-.18,7.4-.1,10.91-3.66,11-11,.19-12-.09-23.94.2-35.91.12-5,.09-10.06,4.07-14,3.15-2.16,6.73-2.77,10.43-2.85,15-.32,29.92-.58,44.86.13,10,.47,12.8,3.41,13.42,13.5.73,12,.08,24,.41,35.94.32,11.46,2.75,14,14.38,14.13,29.24.28,58.49.05,87.74.12a133,133,0,0,1,14.94.56c5.67.65,9.54,3.65,10,9.38a402.73,402.73,0,0,1,.13,51.88C515.26,571.91,513.45,573.85,511.57,575.76Z"/><path class="cls-6" d="M127.93,447.59q-.09-31.8-.19-63.58c-1.44-1.8-3.57-3.3-3.66-5.8-.75-19.21-2.85-38.47,1.3-57.58a7.55,7.55,0,0,1,2.63-2.92c11.77-4.73,24.08-2.25,36.13-2.41,9.38-.13,19.16-2.1,28.08,2.9,3.93,3.85,3.95,8.9,4.07,13.87.25,10.92,0,21.85.17,32.78.24,11.92,2.23,14,13.87,14.23,10.91.24,21.82-.07,32.73.17,5,.11,10,.1,14,3.86,2.7,3.66,3.11,7.93,3.14,12.24.12,17.47.61,34.94-.42,52.4,1,16.87.55,33.75.45,50.63,0,5,0,10.06-4.59,13.52l.13-.13-63.76,0c-4.41-3.05-4.65-7.69-4.75-12.4-.27-11.59.17-23.18-.25-34.77-.33-9.34-2.64-11.65-12-12-11.56-.41-23.14,0-34.71-.24C135.61,452.24,131,452,127.93,447.59Z"/><path class="cls-8" d="M383.85,767.91c17.94,0,35.88-.22,53.82.11,7.34.14,10.05-2.6,9.87-9.93-.35-15,.11-29.94-.17-44.91-.14-6.9,2.56-9.47,9.4-9.36,18.26.29,36.53.15,54.8.18,4.14,3.32,4.29,8,4.32,12.73.23,34.6.4,69.19-.09,103.79-.18,13.09-2.86,15.62-16.15,15.88-17.26.35-34.54.69-51.79-.39-16.84,1-33.69.59-50.53.45-4.9,0-10.1.29-13.48-4.52Z"/><path class="cls-9" d="M383.85,831.94l63.81.09c3.41,2.79,4.19,6.63,4.23,10.73.35,35.54.41,71.08,0,106.62-.05,4.13-1,7.93-4.59,10.51l.05-.08c-18.3.06-36.6,0-54.89.25-6,.1-9.07-1.2-9-8.18C383.77,911.9,383.75,871.92,383.85,831.94Z"/><path class="cls-5" d="M127.93,447.59c18.28.07,36.57.42,54.85.09,7-.12,9.24,2.17,9.11,9.14-.32,18.3,0,36.62.1,54.93l-64.15.08Z"/><path class="cls-5" d="M63.92,575.85c0-17.91.27-35.83-.12-53.73-.17-7.78,2.63-10.57,10.39-10.4,17.88.39,35.77.12,53.65.11,0,17.91-.27,35.83.12,53.74.17,7.77-2.63,10.57-10.39,10.4C99.69,575.58,81.8,575.85,63.92,575.85Z"/><path class="cls-1" d="M447.26,959.89q.21-63.93.4-127.86c17.95,0,35.91-.45,53.84.08,8.07.24,10.06-2.61,10-10.28-.25-39.28,0-78.55.06-117.83,18.28,0,36.57-.35,54.84,0,7.09.15,9-2.41,9-9.23q-.4-54.93,0-109.85c0-6.82-1.91-9.38-9-9.23-18.27.38-36.56.07-54.84,0-.07-18.33-.41-36.65-.07-55,.13-7-2.26-9.13-9.16-9.08-36.26.27-72.52-.07-108.78.28-7.77.08-10.51-2.11-10.2-10.1.58-15-.12-30,.28-45,.19-6.85-1.9-9.41-9-9.24-18.29.46-36.59.24-54.88.28l-1.67-1.06a9.27,9.27,0,0,1-2.48-5.34,438.71,438.71,0,0,1,0-51.92,13.13,13.13,0,0,1,2.54-6.43c3.63-3.56,8.29-3.81,13-3.93,10.28-.27,20.57-.06,30.85-.16,15.41-.14,16.77-1.56,16.91-17.38.09-10.63-.28-21.27.23-31.9.53-11.3,3.19-13.87,14.44-14.52,5-.29,9.95-.16,14.93-.2,38.74-.31,34,4.22,34.33-34.87,0-4.65,0-9.3.16-13.95.14-4,.7-7.94,3.16-11.32,4.05-3.69,9.1-3.67,14.09-3.78,11.63-.25,23.27-.06,34.9-.16,7.87-.07,11.5-3.82,11.56-11.66.07-11.32-.08-22.64.13-34,.09-5,0-10,3.14-14.38,4-3.75,9-3.74,14-3.85,11.58-.25,23.16.18,34.73-.23,9.36-.33,11.58-2.58,11.9-12,.37-10.93,0-21.86.18-32.79.06-4.63-.06-9.31,2-13.63a7.26,7.26,0,0,1,2.28-2.78c9.12-4.42,18.87-2.13,28.35-2.6,6.27-.31,12.57.1,18.85-.15,10-.4,12-2.42,12.25-12.64.3-10.93,0-21.86.15-32.8.06-4.63,0-9.3,2.37-13.56a7.32,7.32,0,0,1,2.69-2.61c6.84-3.26,14.16-2.25,21.32-2.28,14.09-.06,28.2-.46,42.28.53,38.92-1.23,77.85-.63,116.77-.35,12.26.09,14.86,3.18,15.37,15.78.46,11.33,0,22.67.28,34,.31,11,2.76,13.56,13.6,13.89,12,.37,24-.27,35.93.39,10.65.58,13.67,3.36,14,14,.54,18,.8,36-.3,54,1,17.26.53,34.54.5,51.81,0,4-.15,8-2,11.69a7.48,7.48,0,0,1-2.38,2.91c-10.81,4.77-22.23,2.43-33.38,2.59-26.08.36-26.08.12-26.09,26.23,0,26.89.06,53.78-.05,80.68,0,5.28.34,10.66-2,15.66a7.59,7.59,0,0,1-2.25,2.86c-8.82,4.41-18.31,2.23-27.52,2.66-6.65.3-13.32-.13-20,.16-9.58.41-11.7,2.45-12,12-.53,15.66.51,31.34-.76,47,1.17,15.52.32,31.07.71,46.6.28,10.77,2.19,12.72,12.85,13s21.12-.06,31.68.17c4.24.09,8.64-.47,12.51,2a5.78,5.78,0,0,1,2.11,2.83c0,60-.13,120,.26,180.05.06,9.42-3.17,12.23-12.15,11.83-13.29-.59-26.65.28-39.94-.3-8.93-.39-12.64,2.28-12.19,11.79.68,14.31,0,28.67.26,43,.13,6.85-2.43,9.59-9.35,9.46-15-.29-30,.18-44.94-.18-7.45-.19-10,2.78-9.81,10,.36,13.67.12,27.34.09,41,0,13,0,13.06-13.56,13.07-33.95,0-67.92.3-101.87-.18-9.49-.13-13.08,2.65-12.58,12.43.7,14-.09,28,.28,42,.19,7.42-2.69,10.06-10,9.88-14-.36-28,.44-41.93-.28-9.91-.52-12.73,3.34-12.28,12.72.65,13.31-.24,26.69.31,40,.36,8.6-2.38,11.94-11.32,11.64C482.57,959.55,464.91,959.92,447.26,959.89Z"/><path class="cls-9" d="M1022.4,447.83v192L959,639.79c-.07-18.31-.41-36.62-.08-54.92.12-7-2.21-9.32-9.15-9.14-15.28.41-30.59-.16-45.87.25-6.92.18-9.28-2.13-9.16-9.12.32-18.31,0-36.62-.09-54.93,2.4-4.83,7-4.39,11.24-4.54,11.9-.45,23.82.07,35.72-.3,10-.31,12.14-2.49,12.44-12.52.33-10.93,0-21.87.17-32.81.06-4.63,0-9.3,2.35-13.57a7.15,7.15,0,0,1,2.7-2.65c19.06-4.54,38.3-2.13,57.48-1.53C1019.3,444.09,1020.84,446.09,1022.4,447.83Z"/><path class="cls-8" d="M958.81,447.81c0,17.94-.28,35.89.12,53.83.18,7.92-2.85,10.46-10.51,10.31-17.91-.35-35.83-.05-53.75,0l-63.78.24.17-.66c-1.76-1.54-3.78-3.05-3.86-5.58-.65-19.18-3-38.41,1.46-57.46a7.38,7.38,0,0,1,2.73-2.84c4.24-2.36,8.91-2.39,13.55-2.4,33.15-.13,66.3-.2,99.45.06C949.5,443.33,955.26,442.32,958.81,447.81Z"/><path class="cls-10" d="M319.6,0H447.45a9.94,9.94,0,0,1,4.14,7.58,485,485,0,0,1,0,49.72,15.37,15.37,0,0,1-2.72,7.4c-3.62,3.92-8.52,3.45-13.08,3.49-34.29.3-68.58.25-102.87,0-4.28,0-8.75.21-12.32-3l-1.09-1.68Q319.53,31.77,319.6,0Z"/><path class="cls-10" d="M191.62,127.57c0-18.63.41-37.26,0-55.87-.16-6.68,2-8.19,8.32-8.15,39.85.23,79.7,0,119.54,0l.27.27c3.5,2.73,4.21,6.59,4.31,10.69.35,14.64.56,29.29-.1,43.92-.46,10.21-3.26,13.35-13.26,13.56-36.2.77-72.42.52-108.63.13-3.33,0-6.67-.4-9.32-2.85Z"/><path class="cls-10" d="M63.59,319.8c.11-39.61.41-79.22.16-118.83,0-7.2,1.35-9.71,9.12-9.45,18.25.61,36.55.12,54.83.07l1.67,1.08c3.4,3.86,3,8.67,3,13.23q.3,49.66,0,99.33c0,5.24.38,10.77-4.56,14.54h0c-2.45,3.08-5.74,4.24-9.56,4.36q-22.31.72-44.59,0c-3.8-.11-7.15-1.14-9.6-4.25Z"/><path class="cls-10" d="M127.7,191.59c0-18.93.31-37.87,0-56.79-.09-5.67,1.54-7.31,7.21-7.22,18.89.3,37.8,0,56.7,0l.27.27c3.05,2.5,4.13,5.84,4.24,9.65.44,15.57.55,31.13-.1,46.69q-.48,11.34-11.81,11.82c-15.54.66-31.07.55-46.61.1-3.81-.1-7.14-1.18-9.64-4.24Z"/><path class="cls-7" d="M64.09,319.89l63.75-.12q0,32.12-.1,64.24c-18.28-.08-36.56-.41-54.83-.09-7,.13-9.28-2.13-9.11-9.11C64.23,356.51,64,338.19,64.09,319.89Z"/><path class="cls-6" d="M958.48,255.73c.11,18.25.56,36.51.16,54.75-.16,7.13,1.26,9.78,9.08,9.5,18.21-.65,36.45-.21,54.68-.21v64c-3.08,4.55-7.89,4.39-12.53,4.51-11.31.29-22.62-.13-33.91.23-10,.33-12.1,2.44-12.41,12.68-.34,11.32,0,22.64-.2,34-.1,4.73-.3,9.4-4.54,12.62H831c-4.12-2.38-4.28-6.52-4.4-10.5-.44-14.32-.39-28.64,0-43,.1-4.15,1.05-7.91,4.35-10.74l-.08.08c3.33-4,7.92-4.36,12.64-4.46,10.59-.21,21.19,0,31.79-.15,12.78-.24,14.86-2.25,14.94-15.33.21-30.85,0-61.69.14-92.54,0-5.58-.5-11.43,4.49-15.64l-.08.08a12.79,12.79,0,0,1,9.65-4.27q22.29-.69,44.58,0C952.73,251.51,956.13,252.45,958.48,255.73Z"/><path class="cls-4" d="M447.65,63.57q-.11-31.78-.2-63.57H639.22c3.68,2.58,4.3,6.46,4.4,10.51q.57,21.32,0,42.63c-.11,4.09-1,7.87-4.43,10.55h0c-3.19,4.21-7.81,4.44-12.51,4.54-11.56.25-23.12-.17-34.68.24-9.32.33-11.62,2.64-12,12-.42,11.57,0,23.15-.24,34.73-.1,4.7-.33,9.33-4.54,12.53h0c-2,2.24-4.32,4-7.53,4.13a436.44,436.44,0,0,1-51.15-.2c-2-.14-3.73-1.2-5.44-2.17-3.88-3.44-4.13-8.13-4.28-12.81-.31-10-.1-20-.16-29.93-.11-17.27-1.08-18.27-17.9-18.38-10-.07-19.93.21-29.89-.2C454.72,68,450.06,68.41,447.65,63.57Z"/><path class="cls-5" d="M639.2,63.69l0-63.69h63.91q.12,31.8.22,63.61Z"/><path class="cls-8" d="M958.81,447.81c0-17.53.35-35.08-.15-52.6-.24-8.49,2.33-11.87,11.22-11.58,17.49.57,35,.17,52.52.18v64Z"/><path class="cls-1" d="M255.62,511.9l.39-64.08c2.33-3.28,5.7-4.24,9.47-4.36q22.22-.72,44.41,0c3.79.11,7.12,1.16,9.58,4.23l.29.28c-.06,18.33-.39,36.66,0,55,.14,7.11-2.4,9.15-9.23,9C292.22,511.61,273.91,511.88,255.62,511.9Z"/><path class="cls-7" d="M447.65,63.57c18,0,35.94.49,53.89-.06,8.15-.25,10.13,2.72,10,10.34-.37,18,.07,36,.18,54l-1.08,1.54c-4.59,3.68-10.1,2.92-15.33,2.95-30.27.18-60.54,0-90.81.12-14.3.07-16.1,2-16.28,16.14-.13,10.32.16,20.65-.16,31-.42,13.86-2.8,16.46-16.47,16.68-27.93.45-55.88.11-83.82.17-3.66,0-7.32,0-11,0-14.38.21-16.22,2-16.41,16.06-.13,10.32.16,20.65-.15,31-.43,13.92-2.79,16.34-16.44,16.81-10,.35-20,.07-29.93.16-15.76.14-17.26,1.61-17.41,17-.09,9.66.11,19.33-.12,29-.11,4.29.2,8.74-2.86,12.38l-1.53,1.08-64.09-.13q.08-64,.14-127.91c17.85,0,35.71-.36,53.55,0,7.75.16,10.52-2.61,10.36-10.38-.35-17.87,0-35.75,0-53.63,38.44,0,76.88-.34,115.31,0,9.37.1,13-2.5,12.6-12.31-.65-17.23-.11-34.5-.07-51.76Z"/><path class="cls-4" d="M255.75,383.73c-18.3,0-36.61-.21-54.9.19-6.85.14-9.39-1.92-9.22-9,.46-18.32.24-36.66.29-55l-.07,0c2.36-3.2,5.67-4.39,9.51-4.51,15.58-.49,31.16-.57,46.74.07,6.4.27,11.14,3,11.56,9.87a383.73,383.73,0,0,1-.1,52.75c-.12,1.72-1.17,3.07-2.16,4.41Z"/><path class="cls-5" d="M319.47,447.68l-63.46.14q-.12-32.06-.26-64.09l-.14.13a11.31,11.31,0,0,1,8.5-4.33c16.1-.55,32.19-.74,48.28.13a10,10,0,0,1,6.25,2.59l1.07,1.66Z"/><path class="cls-5" d="M447.55,255.87c0,18-.29,36,0,54,.12,7.24-2.36,10.21-9.8,10-15-.36-29.94.11-44.91-.18-6.87-.13-9.51,2.54-9.38,9.42.28,15-.18,30,.17,45,.18,7.46-2.81,9.93-10,9.81-18-.28-35.93,0-53.89,0l-.26-.27c-4.24-3.27-4.33-8-4.36-12.7-.24-34.62-.42-69.24.08-103.86.19-13,2.94-15.62,16.26-15.8,34.23-.45,68.47-.28,102.7-.06,4.27,0,8.73-.21,12.31,3Z"/><path class="cls-7" d="M894.8,255.58c0,38.95-.15,77.9.25,116.85.08,8.68-2.6,11.81-11.41,11.52-17.6-.57-35.23-.22-52.84-.25.06-39.31.3-78.62,0-117.92-.06-7.82,2.19-10.41,10.11-10.2C858.87,256.07,876.84,255.64,894.8,255.58Z"/><path class="cls-5" d="M575.28,127.71c0-17.91.28-35.83-.11-53.73-.17-7.78,2.62-10.58,10.39-10.41,17.87.39,35.76.12,53.64.12,0,17.91-.26,35.83.13,53.73.16,7.78-2.63,10.58-10.4,10.41C611.06,127.44,593.17,127.71,575.28,127.71Z"/><path class="cls-7" d="M830.88,383.62l.09,64.2h0c-2.68,3.48-6.45,4.33-10.54,4.43q-21.28.56-42.56,0c-4.06-.11-7.93-.74-10.49-4.43-.11-18.32,0-36.65-.45-55-.18-6.92,2-9.31,9.06-9.18C794.28,384,812.58,383.68,830.88,383.62Z"/><path class="cls-6" d="M767.38,447.81H831l.09,63.7c-18.84.11-37.68.09-56.52.39-5.5.08-7.64-1.89-7.55-7.49C767.29,485.55,767.27,466.68,767.38,447.81Z"/><path class="cls-7" d="M958.48,255.73l-63.76-.07q.24-32,.5-63.93c18.56,0,37.12.18,55.68-.11,5.57-.08,8.29.66,8.08,7.37C958.39,217.89,958.59,236.82,958.48,255.73Z"/><path class="cls-5" d="M511.47,191.85c0,17.88-.34,35.76,0,53.63.15,7.77-2.64,10.55-10.39,10.39-17.84-.35-35.7,0-53.55,0l-.26-.27c-3.85-3-4.24-7.3-4.33-11.68-.28-14-.46-27.92.08-41.86.44-11.46,3.1-14.23,14.22-14.71,14.25-.6,28.52-.41,42.79-.08,3.63.08,7.35.19,10.3,2.88Z"/><path class="cls-5" d="M511.7,127.8l63.58-.09c0,17.9-.26,35.8.12,53.69.17,7.71-2.51,10.61-10.33,10.45-17.86-.36-35.73,0-53.6,0l-.26-.27c-3.07-2.48-4.1-5.83-4.21-9.63-.45-14.86-.42-29.72,0-44.58a13.37,13.37,0,0,1,4-9.76Z"/><path class="cls-6" d="M511,127.61l.18,64c-18.26,0-36.53.37-54.79,0-6.95-.13-9.23,2.16-9.1,9.12.34,18.29,0,36.59,0,54.88-39.23.05-78.47.3-117.7,0-7.86-.06-10.21,2.29-10.15,10.16.31,39.29.06,78.59,0,117.89l-63.84.22c0-18.34-.2-36.68.2-55,.14-6.88-2-9.38-9-9.21-18.3.46-36.61.25-54.92.3,0-18,.22-36-.21-54-.19-7.93,2.83-10.56,10.53-10.33,14,.42,28-.4,41.9.29,9.49.47,12.16-3.27,11.76-12.2-.58-13-.17-26-.14-39s.05-13,13.59-13c34.26,0,68.53-.23,102.78.15,8.55.09,12-2.36,11.62-11.33-.6-14,.2-28-.29-42-.29-8.22,2.55-11.08,10.88-11C433.19,127.86,472.11,127.64,511,127.61Z"/></g></svg>